<?xml version="1.0" standalone="no"?>
<!DOCTYPE svg PUBLIC "-//W3C//DTD SVG 20010904//EN"
 "http://www.w3.org/TR/2001/REC-SVG-20010904/DTD/svg10.dtd">
<svg version="1.0" xmlns="http://www.w3.org/2000/svg"
 width="260.000000pt" height="260.000000pt" viewBox="0 0 260.000000 260.000000"
 preserveAspectRatio="xMidYMid meet">
<metadata>
Created by potrace 1.11, written by Peter Selinger 2001-2013
</metadata>
<g transform="translate(0.000000,260.000000) scale(0.100000,-0.100000)"
fill="#000000" stroke="none">
<path d="M1460 1920 l0 -561 -43 26 c-157 91 -382 106 -568 36 -113 -43 -250
-158 -322 -273 -73 -115 -100 -218 -100 -373 1 -426 394 -738 817 -649 250 53
473 288 513 541 4 26 8 335 8 686 0 350 3 636 7 635 6 -3 240 -277 252 -296 3
-5 -34 -40 -84 -76 l-90 -66 0 -191 0 -191 24 19 c14 10 89 65 167 123 79 58
164 121 189 141 l46 36 -2 164 c-1 90 -2 176 -3 190 -1 24 -12 40 -95 138 -21
25 -45 55 -55 66 -9 12 -45 57 -81 100 -36 44 -70 87 -77 95 -6 8 -38 47 -70
86 -32 39 -73 89 -92 112 l-34 42 -153 0 -154 0 0 -560z m-244 -878 c102 -52
158 -144 157 -257 -1 -82 -18 -129 -70 -186 -57 -63 -123 -92 -208 -92 -84 1
-130 19 -190 74 -107 99 -120 268 -28 384 33 42 87 80 134 94 52 16 158 7 205
-17z"/>
</g>
</svg>
